<svg xmlns="http://www.w3.org/2000/svg" viewBox="0 0 108 108" width="512" height="512">
  <title>Net Monitor app icon</title>
  <defs>
    <linearGradient id="bg" x1="0" y1="0" x2="108" y2="108" gradientUnits="userSpaceOnUse">
      <stop offset="0%" stop-color="#1B3FCF"/>
      <stop offset="55%" stop-color="#2954E5"/>
      <stop offset="100%" stop-color="#22D3EE"/>
    </linearGradient>
  </defs>

  <!-- Rounded-square canvas (Android launchers apply their own mask on top of this at runtime). -->
  <rect x="0" y="0" width="108" height="108" rx="24" fill="url(#bg)"/>

  <!-- Three ascending signal bars. -->
  <path fill="#FFFFFF" d="M35,54 L39,54 A3,3 0 0 1 42,57 L42,71 A3,3 0 0 1 39,74 L35,74 A3,3 0 0 1 32,71 L32,57 A3,3 0 0 1 35,54 Z
                          M52,42 L56,42 A3,3 0 0 1 59,45 L59,71 A3,3 0 0 1 56,74 L52,74 A3,3 0 0 1 49,71 L49,45 A3,3 0 0 1 52,42 Z
                          M69,30 L73,30 A3,3 0 0 1 76,33 L76,71 A3,3 0 0 1 73,74 L69,74 A3,3 0 0 1 66,71 L66,33 A3,3 0 0 1 69,30 Z"/>
</svg>
